<svg xmlns="http://www.w3.org/2000/svg" viewBox="0 0 341.4 48.76"><defs><style>.a{fill:#fff;}.b{fill:#fff;}</style></defs><title>Tandon_logo</title><rect class="a" x="155.81" width="1.06" height="48.76"/><polygon class="b" points="61.4 10.72 67.02 10.72 79.99 27.77 79.99 10.72 86.01 10.72 86.01 38.41 80.83 38.41 67.41 20.8 67.41 38.41 61.4 38.41 61.4 10.72"/><polygon class="b" points="99.69 27.49 89.05 10.72 96.17 10.72 102.78 21.84 109.5 10.72 116.43 10.72 105.78 27.38 105.78 38.41 99.69 38.41 99.69 27.49"/><path class="b" d="M119,26.55V10.72h6.09V26.39c0,4.51,2.25,6.85,6,6.85s6-2.26,6-6.64V10.72h6.09V26.35c0,8.38-4.71,12.5-12.14,12.5s-12-4.15-12-12.3"/><path class="b" d="M21.48,25.43c-5-3-4.5-7.24-2.43-10.37a.46.46,0,0,0,0-.3,12.07,12.07,0,0,0-1.24-3.14c-.09-.13-.17-.12-.17,0,0,.85-1,3-2.48,5.44-1.58,2.62-1.58,8.3,6.25,8.52.07,0,.09-.07,0-.12m1.34-.22c-3-6.39,3-10.51,4-11.4.14-.12.1-.24.1-.38A15,15,0,0,0,25.36,7.7c-.05-.07-.1,0-.12,0-.51,2-3.23,4.93-3.78,5.58-4.61,5.48-3.56,8.82,1.26,12,.06,0,.13,0,.1-.07m1-.27c1.41-6.77,6.92-6.94,7.41-8.22.77-2-.64-5.56-1-6,0,0-.08,0-.1,0a12,12,0,0,1-2.85,3.92c-1.25,1-6,4.55-3.59,10.26a.06.06,0,0,0,.12,0m1,.59c8.92.32,9.55-7.81,9.59-10.85,0-.18-.08-.19-.13-.07a8.52,8.52,0,0,1-4.64,4.28,8.39,8.39,0,0,0-4.9,6.54c0,.06,0,.09.08.1m2,1h-7v2h7ZM22.69,43.06a.52.52,0,0,0,1,0l1.7-13.51H21.22Zm26.06,5.7H0V0H48.75Z"/><polygon class="a" points="179.31 16.93 170.94 16.93 170.94 11.36 193.72 11.36 193.72 16.93 185.35 16.93 185.35 38.84 179.31 38.84 179.31 16.93"/><path class="a" d="M209.82,27.34l-3.65-8.91-3.65,8.91Zm-6.36-16.18H209l11.78,27.68H214.5L212,32.68H200.36l-2.51,6.16h-6.17Z"/><polygon class="a" points="224.32 11.36 229.9 11.36 242.78 28.28 242.78 11.36 248.75 11.36 248.75 38.85 243.6 38.85 230.29 21.37 230.29 38.85 224.32 38.85 224.32 11.36"/><path class="a" d="M260.49,16.82V33.39h4.67c4.95,0,8.29-3.34,8.29-8.2V25.1a7.89,7.89,0,0,0-8.29-8.29Zm-6-5.46h10.72c8.64,0,14.61,5.93,14.61,13.66v.08c0,7.74-6,13.74-14.61,13.74H254.44Z"/><path class="a" d="M306.05,25.18V25.1a8.35,8.35,0,0,0-8.32-8.64A8.22,8.22,0,0,0,289.48,25v.08a8.35,8.35,0,0,0,8.32,8.64,8.22,8.22,0,0,0,8.25-8.56m-22.89,0V25.1c0-7.82,6.16-14.21,14.65-14.21S312.37,17.21,312.37,25v.08c0,7.81-6.16,14.21-14.65,14.21S283.16,33,283.16,25.18"/><polygon class="a" points="316.98 11.36 322.55 11.36 335.43 28.28 335.43 11.36 341.4 11.36 341.4 38.85 336.26 38.85 322.94 21.37 322.94 38.85 316.98 38.85 316.98 11.36"/></svg>